<svg xmlns="http://www.w3.org/2000/svg" viewBox="0 0 210 50.5">
  <style type="text/css">
    .cls-1 {
      fill: #dcd8d0;
    }
    .cls-2 {
      fill: #be4c22;
    }
    .cls-3 {
      fill: #1d1e1c;
    }
    .cls-4 {
      fill: #ffffff;
    }
    .cls-5 {
      fill: #ffffff;
    }
  </style>
  <path class="cls-1" d="m16.7 1.7h-11.7c-1.9 0-3.4 1.5-3.4 3.3v40.1c0 1.6 1.3 2.9 3.3 2.9h11.8c1.8 0 3.5-1.2 3.5-3.4v-39.4c0-1.9-1.6-3.5-3.5-3.5z"></path>
  <path class="cls-2" d="m30.8 1.7h-3.5c-0.5 0-1 0.4-1 1v23.3c0 0.5 0.4 1 1 1h3.5c6.5 0 12.3-5.1 12.3-12.4 0-6.7-5.2-12.9-12.3-12.9z"></path>
  <path class="cls-3" d="m29.9 32.2c-0.4-0.3-0.8-0.4-1.2-0.4h-1.3c-0.6 0-1.1 0.5-1.1 1.1v11.8c0 1.8 1.5 3.3 3.3 3.3h15.7c0.4 0 0.7-0.5 0.4-0.8l-15.8-15z"></path>
  <path class="cls-4" d="m79.3 39.4-6.3-9.3h-2.6v7c0 1.6 0.8 1.6 2.3 1.8v0.5h-7.5v-0.5c1.4-0.2 2.4-0.3 2.4-1.7v-15.5c0-1.4-0.9-1.7-2.3-1.9v-0.4h7.9c4.4 0 6.7 2.2 6.7 5.2 0 2.3-1.6 4.1-4.2 4.9l4.5 6.8c1.2 1.8 2.2 2.5 3.4 2.6v0.5h-4.3zm-6.8-19.4c-0.6 0-1.6 0.1-2.2 0.1v9h2.3c2.8 0.1 4.6-1.6 4.6-4.4 0-2.3-1.3-4.7-4.7-4.7z"></path>
  <path class="cls-4" d="m90.1 39.7c-3.7 0-6.6-2.5-6.6-6.5 0-3.5 2.5-6.7 6.4-6.7 3.8 0 6.6 2.7 6.6 6.6 0 3.4-2.4 6.6-6.4 6.6zm-0.2-12.7c-2.4 0-3.6 2.4-3.6 5.8 0 3.2 1.3 6.2 3.9 6.2s3.6-2.5 3.6-5.7c0-3.1-1.3-6.3-3.9-6.3z"></path>
  <path class="cls-4" d="m105.1 39.7c-3.6 0-6.5-2.5-6.5-6.5 0-3.5 2.5-6.7 6.4-6.7 3.7 0 6.5 2.7 6.5 6.6 0 3.4-2.3 6.5-6.4 6.6zm-0.1-12.7c-2.4 0-3.6 2.4-3.6 5.8 0 3.2 1.3 6.2 3.8 6.2 2.6 0 3.7-2.5 3.7-5.7 0-3.1-1.3-6.3-3.9-6.3z"></path>
  <path class="cls-4" d="m130.4 39.4v-0.4c1-0.1 1.7-0.3 1.7-1.1v-6.8c0-2-0.9-3.1-2.7-3.1-1.2 0-2.3 0.7-3.4 1.6 0 0.3 0.1 0.8 0.1 1.3v6.9c0 0.9 0.6 1 1.6 1.2v0.4h-5.7v-0.4c1.1-0.2 1.6-0.3 1.6-1.2v-6.7c0-2-0.8-3.1-2.6-3.1-1.3 0-2.3 0.6-3.4 1.4v8.4c0 0.9 0.6 1 1.6 1.2v0.4h-6v-0.5c1.1-0.2 1.8-0.3 1.8-1.2v-8.3c0-0.9-0.5-1.1-1.7-1.3v-0.3l3.9-1.3 0.3 0.1v2.2c1.5-1.4 2.9-2.4 4.7-2.4 1.7 0.1 3.1 0.9 3.6 2.7 1.5-1.6 3-2.7 4.8-2.7 2.2 0 3.9 1.3 3.9 4.3v7.1c0 0.9 0.7 1 1.8 1.2v0.4h-5.9z"></path>
  <path class="cls-4" d="m144.7 39.7c-2.3 0-3.5-0.7-5.4-0.8l-0.6-4.9h0.5c1.1 3.2 3 5 5.8 5 2.3 0 3.9-1.4 3.9-3.7 0-1.9-1.1-3.1-4.3-4.6-3-1.5-5.5-3-5.5-6.2 0-2.8 2.4-5.4 6-5.4 1.9 0 3.3 0.8 4.8 0.5l0.6 4.8h-0.4c-0.7-2.7-2.4-4.4-5-4.4-2.1 0-3.5 1.4-3.5 3.4 0 2.2 1.4 3.2 4.3 4.6 3.2 1.8 5.4 2.9 5.4 6 0 3.2-2.7 5.7-6.6 5.7z"></path>
  <path class="cls-4" d="m161.5 39.4v-0.4c1-0.1 2-0.2 2-1.1v-6.7c0-2.1-0.9-3.2-2.8-3.2-1.3 0-2.3 0.6-3.3 1.5v8.2c0 1 0.7 1.1 1.6 1.3v0.4h-5.9v-0.4c1.1-0.2 1.8-0.3 1.8-1.3v-15.7c0-0.9-0.4-1.3-1.6-1.7v-0.3l3.9-1.3 0.2 0.1v9.8c1-1.1 2.8-2.3 4.6-2.3 2.2 0 3.9 1.3 3.9 4.3v7.3c0 0.8 0.8 0.9 1.6 1.1v0.4h-6z"></path>
  <path class="cls-4" d="m178.5 39.7c-1.4 0.1-2.2-0.6-2.1-2.1-1 1-2.3 2.1-4.1 2.1-2 0-3.4-1.1-3.4-2.8 0-2.3 1.8-3.1 5.1-4.1l2.4-0.8v-1.6c0-1.8-0.9-2.8-2.7-2.9-1.3 0-1.7 0.9-1.7 1.9-0.1 0.7-0.5 1.1-1.1 1.1s-1.2-0.3-1.2-1c0-1.5 2.9-3.1 5.3-3.1s4 1.3 4 3.5v7.3c0 0.7 0.5 1.1 1.1 1.1 0.3 0 0.7-0.1 1-0.3l0.2 0.3c-0.7 0.8-1.9 1.3-2.8 1.4zm-4.4-6.3c-1.5 0.6-2.7 1.2-2.7 2.9 0 1.2 0.9 2 2.2 2 1 0 1.9-0.4 2.8-1.2v-4.4l-2.3 0.7z"></path>
  <path class="cls-4" d="m190.4 29c-0.4 0.3-1.2 0.2-1.6-0.3-0.4-0.4-0.6-0.7-1.1-0.7-0.8 0-1.5 0.9-1.5 2h0.2v7.7c0 1 0.7 1.1 1.8 1.3v0.4h-5.6v-0.4c1.1-0.2 1.7-0.4 1.7-1.3v-8.2c0-0.9-0.4-1.1-1.7-1.3v-0.4l3.8-1.4 0.1 0.1v2.9c1-1.5 2.4-3 3.9-3 1.1 0 1.7 0.8 1.7 1.4 0 0.7-0.6 1.2-1.7 1.2z"></path>
  <path class="cls-4" d="m198 39.7c-3.7 0-5.6-2.6-5.6-6.3 0-3.6 2.5-6.9 5.4-6.9 3.3 0 4.9 2.3 4.9 5.3h-8c0 3.6 1.7 6.4 4.7 6.4 1.3 0 2.6-0.5 3.2-1.4l0.4 0.4c-0.9 1.4-2.6 2.5-5 2.5zm-0.3-12.7c-1.8 0-2.8 1.8-3 4h5.7c-0.1-1.8-0.8-4-2.7-4z"></path>
  <path class="cls-5" d="m206.7 39.6c-1 0-1.7-0.7-1.7-1.7s0.7-1.9 1.7-1.9 1.8 0.8 1.8 1.9-0.8 1.7-1.8 1.7z"></path>
</svg>
